# xmcd CD database file
#
# Track frame offsets:
#	150
#	22157
#	59491
#	92073
#	120160
#	136255
#	164646
#	193136
#	227167
#	249308
#	271460
#	304179
#
# Disc length: 4434 seconds
#
# Revision: 0
# Processed by: cddbd v1.5.1PL2 Copyright (c) Steve Scherf et al.
# Submitted via: CDex 1.51
#
DISCID=a811500c
DTITLE=Franco D'andrea - Standards Of The Big Band Era1
DYEAR=2002
DGENRE=Jazz
TTITLE0=Let's Dance
TTITLE1=Snow Fall
TTITLE2=Skylark
TTITLE3=Moonlight Serenade
TTITLE4=Intermission Riff
TTITLE5=In The Mood
TTITLE6=Goodbye
TTITLE7=Margie
TTITLE8=Midnight Sun
TTITLE9=Moonlight Serenade(alt)
TTITLE10=Margie(alt)
TTITLE11=Let's Dance(alt) 
EXTD=YEAR: 2002
EXTT0=
EXTT1=
EXTT2=
EXTT3=
EXTT4=
EXTT5=
EXTT6=
EXTT7=
EXTT8=
EXTT9=
EXTT10=
EXTT11=
PLAYORDER=
